<?xml version="1.0" encoding="UTF-8"?>
<svg width="24px" height="24px" viewBox="0 0 24 24" version="1.1" xmlns="http://www.w3.org/2000/svg" xmlns:xlink="http://www.w3.org/1999/xlink">
    <title>right-arrow</title>
    <g id="right-arrow" stroke="none" stroke-width="1" fill="none" fill-rule="evenodd">
        <rect id="background" x="0" y="0" width="24" height="24"></rect>
        <path d="M13.234375,19.1699219 C13.4752604,19.1699219 13.6933594,19.0722656 13.8886719,18.8769531 L20.0117188,12.7734375 C20.2135417,12.578125 20.3144531,12.3470052 20.3144531,12.0800781 C20.3144531,11.8196615 20.2135417,11.5917969 20.0117188,11.3964844 L13.9179688,5.30273438 C13.8072917,5.19856771 13.694987,5.12207031 13.5810547,5.07324219 C13.4671224,5.02441406 13.3515625,5 13.234375,5 C12.9739583,5 12.757487,5.08463542 12.5849609,5.25390625 C12.4124349,5.42317708 12.3261719,5.63476562 12.3261719,5.88867188 C12.3261719,6.01236979 12.3489583,6.1328125 12.3945312,6.25 C12.4401042,6.3671875 12.5019531,6.46484375 12.5800781,6.54296875 L14.6503906,8.64257812 L17.5554844,11.2927656 L15.3730469,11.1621094 L3.92773438,11.1621094 C3.65429688,11.1621094 3.4313151,11.2483724 3.25878906,11.4208984 C3.08626302,11.5934245 3,11.813151 3,12.0800781 C3,12.3535156 3.08626302,12.5764974 3.25878906,12.7490234 C3.4313151,12.9215495 3.65429688,13.0078125 3.92773438,13.0078125 L15.3730469,13.0078125 L17.5714844,12.8697656 L14.6503906,15.5175781 L12.5800781,17.6269531 C12.5019531,17.7050781 12.4401042,17.8011068 12.3945312,17.9150391 C12.3489583,18.0289714 12.3261719,18.1510417 12.3261719,18.28125 C12.3261719,18.5351562 12.4124349,18.7467448 12.5849609,18.9160156 C12.757487,19.0852865 12.9739583,19.1699219 13.234375,19.1699219 Z" id="arrow" fill="#62626D" fill-rule="nonzero"></path>
    </g>
</svg>